# xmcd CD database file
# Copyright (C) 1995-1998 Ti Kan
#
# Track frame offsets:
#	150
#	21995
#	42177
#	68395
#
# Disc length: 1203 seconds
#
# Revision: 1
# Processed by: cddbd v1.4PL0 Copyright (c) Steve Scherf et al.
# Submitted via: CDex 1.30Release
#
DISCID=2804b104
DTITLE=Paul Rodgers - Muddy Water Blues (Ltd Ed. CD2)
DYEAR=1993
DGENRE=Blues
TTITLE0=Muddy Water Blues (Electric Version)
TTITLE1=Purple Haze
TTITLE2=Stone Free
TTITLE3=Little Wing
EXTD=YEAR: 1993 ID3G:   0
EXTT0=
EXTT1=
EXTT2=
EXTT3=
PLAYORDER=
